<svg xmlns="http://www.w3.org/2000/svg" xmlns:xlink="http://www.w3.org/1999/xlink" preserveAspectRatio="xMidYMid" width="158" height="50" viewBox="0 0 158 50">
  <defs>
    <style>
      .cls-1 {
        fill: #777;
        fill-rule: evenodd;
      }
    </style>
  </defs>
  <path d="M150.833,39.015 L150.826,43.567 L157.489,43.578 L157.488,44.397 L150.825,44.386 L150.818,49.006 L158.000,49.018 L157.999,49.888 L149.955,49.874 L149.973,38.159 L157.823,38.173 L157.821,39.026 L150.833,39.015 ZM155.132,19.745 L155.154,5.963 L153.650,16.740 L155.132,19.745 L155.113,32.178 L152.971,32.174 L150.370,23.043 L143.233,23.032 L140.384,19.720 L122.365,19.690 L118.956,32.178 L116.816,32.175 L118.204,19.683 L116.717,19.681 L107.479,32.098 L104.565,32.093 L104.581,22.417 L103.035,22.414 L105.893,19.662 L113.412,3.383 L127.688,0.650 L156.589,0.698 L156.559,19.747 L155.132,19.745 ZM95.193,43.658 L99.987,43.666 L99.980,48.050 C98.791,49.270 97.376,49.938 95.687,49.935 C91.820,49.929 89.825,47.147 89.830,43.950 C89.819,40.284 92.245,37.896 95.706,37.902 C97.201,37.904 98.711,38.491 99.863,39.665 L99.358,40.234 C98.369,39.228 96.989,38.723 95.705,38.721 C92.373,38.715 90.663,41.224 90.675,43.934 C90.671,46.697 92.373,49.076 95.688,49.081 C96.907,49.083 98.175,48.650 99.152,47.731 L99.157,44.451 L95.192,44.445 L95.193,43.658 ZM95.183,32.092 C93.676,32.089 92.423,30.794 92.425,29.242 C92.428,27.617 93.685,26.289 95.192,26.292 C96.770,26.294 98.024,27.626 98.021,29.252 C98.019,30.803 96.761,32.095 95.183,32.092 ZM77.842,19.908 L66.094,31.970 L66.143,0.973 C66.143,0.566 66.467,0.235 66.825,0.235 L70.986,0.242 C71.380,0.243 71.666,0.575 71.666,0.982 L71.639,18.236 L77.855,11.854 L84.051,18.256 L84.078,1.003 C84.079,0.596 84.401,0.265 84.796,0.266 L88.921,0.272 C89.315,0.273 89.602,0.605 89.601,1.012 L89.552,32.008 L77.842,19.908 ZM63.799,49.731 L59.874,45.289 L56.771,45.284 L56.764,49.719 L55.886,49.718 L55.904,38.002 L60.909,38.010 C63.379,38.014 64.628,39.841 64.641,41.666 C64.654,43.573 63.433,45.245 60.947,45.241 L64.953,49.733 L63.799,49.731 ZM63.683,41.647 C63.701,40.275 62.793,38.850 60.908,38.847 L56.781,38.840 L56.772,44.431 L60.802,44.437 C62.784,44.440 63.663,43.287 63.683,41.647 ZM60.390,32.034 C58.884,32.031 57.630,30.736 57.633,29.184 C57.635,27.558 58.893,26.231 60.399,26.234 C61.978,26.236 63.231,27.568 63.229,29.194 C63.226,30.746 61.969,32.036 60.390,32.034 ZM43.618,31.932 C35.117,31.917 28.205,24.776 28.218,16.020 C28.232,7.264 35.167,0.145 43.668,0.160 C52.169,0.174 59.080,7.315 59.067,16.072 C59.053,24.827 52.118,31.946 43.618,31.932 ZM43.659,5.923 C38.243,5.914 33.823,10.450 33.814,16.030 C33.806,21.608 38.211,26.122 43.627,26.131 C49.043,26.140 53.427,21.641 53.435,16.063 C53.444,10.483 49.075,5.932 43.659,5.923 ZM32.858,37.964 L33.345,37.964 L36.806,48.682 L40.349,37.976 L41.291,37.978 L37.259,49.720 L36.316,49.718 L34.521,44.226 L33.098,39.588 L31.661,44.187 L29.833,49.708 L28.891,49.706 L24.927,37.951 L25.854,37.952 L29.348,48.669 L32.858,37.964 ZM21.203,7.105 C20.988,7.289 20.701,7.325 20.414,7.177 C16.939,5.066 12.346,5.354 9.077,8.193 C4.947,11.807 4.434,18.197 7.943,22.489 C11.201,26.447 16.831,27.195 20.925,24.357 C20.925,24.357 20.961,24.357 20.961,24.320 C21.248,24.136 21.678,24.211 21.893,24.507 L24.578,27.799 C24.865,28.095 24.829,28.576 24.540,28.833 C24.505,28.833 24.505,28.833 24.505,28.871 L24.470,28.871 L24.469,28.907 C23.607,29.534 22.709,30.049 21.777,30.491 C15.638,33.289 8.180,31.762 3.633,26.212 C-1.880,19.516 -1.075,9.431 5.462,3.753 C10.957,-1.040 18.814,-1.175 24.439,2.972 L24.546,3.046 L24.617,3.120 C24.904,3.453 24.867,3.934 24.579,4.191 L21.203,7.105 ZM7.081,37.786 C8.576,37.789 10.087,38.378 11.222,39.552 L10.620,40.086 C9.646,39.080 8.364,38.592 7.080,38.590 C3.765,38.585 2.055,40.992 2.067,43.804 C2.095,46.549 3.782,48.928 7.064,48.934 C8.348,48.936 9.649,48.436 10.625,47.450 L11.209,48.020 C10.070,49.190 8.557,49.773 7.062,49.771 C3.228,49.764 1.233,46.999 1.222,43.836 C1.194,40.706 3.181,37.780 7.081,37.786 ZM18.019,37.754 C21.854,37.761 23.767,40.659 23.746,43.823 C23.725,46.902 21.819,49.862 18.000,49.856 C14.181,49.849 12.268,46.867 12.273,43.771 C12.278,40.624 14.184,37.748 18.019,37.754 ZM18.001,49.019 C21.251,49.024 22.897,46.449 22.901,43.805 C22.905,41.093 21.284,38.597 18.018,38.592 C14.752,38.586 13.123,41.026 13.135,43.789 C13.147,46.432 14.768,49.013 18.001,49.019 ZM48.070,37.805 C51.905,37.811 53.818,40.710 53.797,43.873 C53.776,46.953 51.870,49.912 48.051,49.906 C44.233,49.900 42.319,46.917 42.324,43.821 C42.329,40.674 44.235,37.799 48.070,37.805 ZM48.053,49.069 C51.302,49.074 52.948,46.499 52.952,43.855 C52.956,41.143 51.335,38.647 48.069,38.642 C44.803,38.636 43.174,41.077 43.186,43.839 C43.198,46.483 44.819,49.064 48.053,49.069 ZM67.329,38.021 L67.321,43.361 L72.854,38.031 L73.910,38.032 L73.910,38.116 L68.182,43.629 L74.413,49.683 L74.413,49.749 L73.307,49.747 L67.320,43.963 L67.311,49.720 L66.433,49.718 L66.452,38.020 L67.329,38.021 ZM76.463,38.037 L76.445,49.752 L75.584,49.751 L75.602,38.036 L76.463,38.037 ZM79.357,38.041 L86.995,47.745 L87.010,38.054 L87.872,38.056 L87.853,49.771 L87.512,49.770 L79.856,40.085 L79.841,49.757 L78.964,49.756 L78.982,38.041 L79.357,38.041 ZM110.753,49.173 C112.151,49.175 114.378,48.777 114.382,46.703 C114.401,44.945 112.516,44.557 110.648,44.185 C108.569,43.763 106.440,43.325 106.443,41.166 C106.400,38.688 108.903,37.924 110.771,37.927 C112.396,37.930 113.810,38.199 114.928,39.925 L114.213,40.359 C113.386,38.985 112.054,38.782 110.770,38.763 C109.438,38.761 107.324,39.259 107.321,41.134 C107.319,42.624 108.879,42.978 110.796,43.350 C112.988,43.787 115.263,44.193 115.259,46.721 C115.239,49.365 112.654,49.996 110.752,49.993 C108.981,49.991 106.967,49.234 106.093,47.442 L106.873,47.042 C107.570,48.466 109.356,49.171 110.753,49.173 ZM122.712,26.060 L125.088,27.963 L125.081,32.127 L122.941,32.124 L122.712,26.060 ZM122.115,38.113 C127.056,38.121 127.044,45.786 122.103,45.778 L117.992,45.771 L117.986,49.822 L117.108,49.820 L117.127,38.105 L122.115,38.113 ZM122.105,44.958 C125.891,44.964 125.900,38.955 122.114,38.949 L118.003,38.942 L117.993,44.951 L122.105,44.958 ZM132.648,38.130 L137.732,49.854 L136.790,49.853 L135.544,46.972 L128.750,46.961 L127.510,49.837 L126.568,49.836 L131.689,38.129 L132.648,38.130 ZM135.202,46.135 L132.159,39.000 L129.092,46.124 L135.202,46.135 ZM143.278,32.158 L145.905,26.037 L147.686,28.062 L145.478,32.162 L143.278,32.158 ZM144.285,38.016 C145.779,38.018 147.290,38.606 148.426,39.780 L147.823,40.315 C146.850,39.309 145.567,38.821 144.284,38.819 C140.969,38.814 139.258,41.220 139.270,44.032 C139.298,46.777 140.984,49.157 144.267,49.163 C145.551,49.165 146.851,48.665 147.828,47.679 L148.412,48.249 C147.273,49.419 145.760,50.002 144.266,50.000 C140.431,49.993 138.436,47.228 138.425,44.065 C138.397,40.934 140.385,38.009 144.285,38.016 Z" class="cls-1"/>
</svg>
